# Blender v2.75 (sub 0) OBJ File: 'object.blend'
# www.blender.org
mtllib equipment.mtl
o Cube
v -0.282548 0.719998 0.686005
v -1.000000 0.719998 0.686004
v 0.080412 0.719998 0.686005
v -0.282548 0.638756 0.881133
v 0.080412 0.638756 0.881133
v -0.282547 0.206185 1.158544
v 0.080412 0.323421 1.158544
v -0.101068 0.638756 0.881133
v -0.101068 0.323421 1.158544
v -0.210942 0.136542 1.280647
v 0.109394 0.253778 1.280647
v -0.101068 0.253778 1.280647
v -0.104530 0.210247 1.384179
v 0.109394 0.210247 1.384179
v -1.514278 0.634107 0.601909
v 2.441264 0.777487 0.503286
v 2.441264 0.696245 0.698414
v 2.441264 0.293962 0.975825
v 2.327963 0.224318 1.097928
v 2.323451 0.227826 1.201461
v 2.441264 0.191528 0.137836
v 2.441264 0.191528 0.613898
v 2.441264 0.807510 0.137836
v 2.441264 0.644411 0.430998
v 3.657438 0.700335 0.535051
v 3.657438 0.800132 0.838762
v 3.657438 1.093309 0.612180
v 3.657438 1.062631 0.769574
v 4.428992 0.575948 0.499656
v -0.282547 1.000000 0.000000
v -0.282548 0.719998 -0.686005
v -1.000000 0.719998 -0.686004
v -1.000000 1.000000 0.000000
v 0.080413 1.000000 0.000000
v 0.080412 0.719998 -0.686005
v -0.282548 0.638756 -0.881133
v 0.080412 0.638756 -0.881133
v -0.282547 0.206185 -1.158544
v 0.080412 0.323421 -1.158544
v -0.101068 0.638756 -0.881133
v -0.101068 0.323421 -1.158544
v -0.210942 0.136542 -1.280647
v 0.109394 0.253778 -1.280647
v -0.101068 0.253778 -1.280647
v -0.104530 0.210247 -1.384179
v 0.109394 0.210247 -1.384179
v -1.514278 0.831178 0.000000
v -1.514278 0.634107 -0.601909
v 2.441265 1.057489 0.000000
v 2.441264 0.777487 -0.503286
v 2.441264 0.696245 -0.698414
v 2.441264 0.293962 -0.975825
v 2.327963 0.224318 -1.097928
v 2.323451 0.227826 -1.201461
v 2.441264 0.191528 -0.137836
v 2.441264 0.191528 -0.613898
v 2.441264 0.807510 -0.137836
v 2.441264 0.644411 -0.430998
v 3.657438 0.700335 -0.535051
v 3.657438 0.800132 -0.838762
v 3.657438 1.093309 -0.612180
v 3.657438 1.062631 -0.769574
v 4.428992 0.575948 -0.499656
v -0.282547 0.000000 1.000000
v -1.000000 0.000000 0.922283
v -0.282548 -0.719998 0.686005
v -1.000000 -0.719998 0.686004
v 0.080412 -0.719998 0.686005
v -0.282547 0.000000 1.195128
v -0.282548 -0.638756 0.881133
v 0.080412 -0.638756 0.881133
v -0.282547 -0.206185 1.158544
v 0.080412 -0.323421 1.158544
v -0.101068 -0.638756 0.881133
v -0.101068 -0.323421 1.158544
v -0.210941 0.000000 1.317231
v -0.210942 -0.136542 1.280647
v 0.109394 -0.253778 1.280647
v -0.101068 -0.253778 1.280647
v -0.104531 0.000000 1.420764
v 0.109393 0.000000 1.420764
v -0.104530 -0.210247 1.384179
v 0.109394 -0.210247 1.384179
v -1.514278 -0.634107 0.601909
v -1.514278 0.000000 0.768208
v 2.441264 0.000000 0.817281
v 2.441264 -0.777487 0.503286
v 2.441264 -0.696245 0.698414
v 2.441264 -0.293962 0.975825
v 2.327963 -0.224318 1.097928
v 2.323450 0.000000 1.238045
v 2.323451 -0.227826 1.201461
v 2.441264 -0.191528 0.137836
v 2.441264 -0.191528 0.613898
v 2.441264 -0.807510 0.137836
v 2.441264 -0.644411 0.430998
v 3.657438 -0.700335 0.535051
v 3.657438 -0.800132 0.838762
v 3.657438 -1.093309 0.612180
v 3.657438 -1.062631 0.769574
v 4.428992 -0.575948 0.499656
v -0.282547 0.000000 -1.000000
v -1.000000 0.000000 -0.922283
v -0.282547 -1.000000 0.000000
v -0.282548 -0.719998 -0.686005
v -1.000000 -0.719998 -0.686004
v -1.000000 -1.000000 0.000000
v 0.080413 -1.000000 0.000000
v 0.080412 -0.719998 -0.686005
v -0.282547 0.000000 -1.195128
v -0.282548 -0.638756 -0.881133
v 0.080412 -0.638756 -0.881133
v -0.282547 -0.206185 -1.158544
v 0.080412 -0.323421 -1.158544
v -0.101068 -0.638756 -0.881133
v -0.101068 -0.323421 -1.158544
v -0.210941 0.000000 -1.317231
v -0.210942 -0.136542 -1.280647
v 0.109394 -0.253778 -1.280647
v -0.101068 -0.253778 -1.280647
v -0.104531 0.000000 -1.420764
v 0.109393 0.000000 -1.420764
v -0.104530 -0.210247 -1.384179
v 0.109394 -0.210247 -1.384179
v -1.514278 -0.831178 0.000000
v -1.514278 -0.634107 -0.601909
v -1.939052 0.000000 0.000000
v -1.514278 0.000000 -0.768208
v 2.441264 0.000000 0.000000
v 2.441264 0.000000 -0.817281
v 2.441265 -1.057489 0.000000
v 2.441264 -0.777487 -0.503286
v 2.441264 -0.696245 -0.698414
v 2.441264 -0.293962 -0.975825
v 2.327963 -0.224318 -1.097928
v 2.323450 0.000000 -1.238045
v 2.323451 -0.227826 -1.201461
v 2.441264 -0.191528 -0.137836
v 2.441264 -0.191528 -0.613898
v 2.441264 -0.807510 -0.137836
v 2.441264 -0.644411 -0.430998
v 3.657438 -0.700335 -0.535051
v 3.657438 -0.800132 -0.838762
v 3.657438 -1.093309 -0.612180
v 3.657438 -1.062631 -0.769574
v 4.428992 -0.575948 -0.499656
vt 0.332219 0.587801
vt 0.334689 0.742311
vt 0.216749 0.741032
vt 0.214278 0.586522
vt 0.325425 0.563875
vt 0.217085 0.562700
vt 0.215937 0.490897
vt 0.324277 0.492072
vt 0.038284 0.589082
vt 0.047577 0.743905
vt 0.085841 0.487576
vt 0.062928 0.481784
vt 0.065044 0.047735
vt 0.087511 0.025638
vt 0.185967 0.562374
vt 0.185392 0.526472
vt 0.184818 0.490570
vt 0.908502 0.976650
vt 0.772939 0.746009
vt 0.810261 0.694443
vt 0.859283 0.746397
vt 0.923751 0.908422
vt 0.103308 0.526984
vt 0.102734 0.491082
vt 0.081681 0.563458
vt 0.369048 0.841596
vt 0.531728 0.979089
vt 0.338596 0.979089
vt 0.916169 0.715617
vt 0.871844 0.696582
vt 0.923751 0.679486
vt 0.086410 0.523147
vt 0.063587 0.523036
vt 0.841744 0.658911
vt 0.911736 0.762168
vt 0.047159 0.523545
vt 0.046488 0.481614
vt 0.873625 0.626700
vt 0.301657 0.853963
vt 0.208195 0.852582
vt 0.062872 0.855282
vt 0.004787 0.524428
vt 0.004116 0.482497
vt 0.495593 0.788377
vt 0.011774 0.049190
vt 0.057445 0.048222
vt 0.397509 0.668295
vt 0.571755 0.600689
vt 0.528810 0.644480
vt 0.427312 0.683860
vt 0.521032 0.539344
vt 0.520243 0.517016
vt 0.571293 0.509139
vt 0.505921 0.566553
vt 0.415744 0.626283
vt 0.104419 0.024861
vt 0.202970 0.023925
vt 0.234088 0.024252
vt 0.327695 0.024749
vt 0.745194 0.089062
vt 0.822156 0.080278
vt 0.800438 0.432665
vt 0.774260 0.435173
vt 0.571616 0.776658
vt 0.528728 0.746980
vt 0.334689 0.776658
vt 0.390720 0.746980
vt 0.713987 0.458495
vt 0.579099 0.432941
vt 0.564182 0.153772
vt 0.651406 0.172031
vt 0.963639 0.061166
vt 0.878229 0.421896
vt 0.413367 0.046532
vt 0.517486 0.027221
vt 0.473200 0.309027
vt 0.404650 0.323171
vt 0.931368 0.631083
vt 0.517486 0.467975
vt 0.643810 0.536861
vt 0.723199 0.503134
vt 0.744574 0.805975
vt 0.713987 0.016137
vn -0.000000 0.925800 0.377900
vn -0.050500 0.356500 0.932900
vn 0.051600 0.859700 0.508200
vn 0.000000 0.923200 0.384400
vn -1.000000 -0.000000 -0.000000
vn 0.000000 0.660500 0.750800
vn -0.189000 0.585100 0.788700
vn -0.868200 0.125900 0.480000
vn -0.705600 0.661300 0.254500
vn 0.000000 0.868600 0.495400
vn -0.842800 0.112400 0.526300
vn -0.530900 0.659700 0.531900
vn 0.000000 0.921800 0.387600
vn -0.715300 0.144300 0.683800
vn -0.252200 0.907400 0.336100
vn -0.238700 0.276700 0.930800
vn 0.000000 0.171400 0.985200
vn -0.880700 0.450100 0.147400
vn 0.080500 0.164200 0.983100
vn 1.000000 0.000000 0.000000
vn 0.966900 0.121000 0.224800
vn 0.778500 -0.297900 0.552400
vn 0.057500 0.610600 0.789800
vn 0.007300 0.923200 0.384400
vn 0.018300 0.981600 0.190100
vn -0.005500 0.904700 0.426000
vn -0.369700 0.853500 0.367100
vn 0.315400 0.072300 -0.946200
vn -0.337700 0.312800 0.887700
vn 0.389700 -0.913500 0.116900
vn 0.446500 0.228000 0.865200
vn -0.137500 -0.941000 0.309200
vn 0.565700 0.809400 0.157800
vn -0.014000 0.192600 -0.981200
vn -0.000000 0.925800 -0.377900
vn -0.050500 0.356500 -0.932900
vn 0.051600 0.859700 -0.508200
vn 0.000000 0.923200 -0.384400
vn 0.000000 0.660500 -0.750800
vn -0.189000 0.585100 -0.788700
vn -0.868200 0.125900 -0.480000
vn -0.705600 0.661300 -0.254500
vn 0.000000 0.868600 -0.495400
vn -0.842800 0.112400 -0.526300
vn -0.530900 0.659700 -0.531900
vn 0.000000 0.921800 -0.387600
vn -0.715300 0.144300 -0.683800
vn -0.252200 0.907400 -0.336100
vn -0.238700 0.276700 -0.930800
vn 0.000000 0.171400 -0.985200
vn -0.880700 0.450100 -0.147400
vn 0.080500 0.164200 -0.983100
vn 0.966900 0.121000 -0.224800
vn 0.778500 -0.297900 -0.552400
vn 0.057500 0.610600 -0.789800
vn 0.007300 0.923200 -0.384400
vn 0.018300 0.981600 -0.190100
vn -0.005500 0.904700 -0.426000
vn -0.369700 0.853500 -0.367100
vn 0.315400 0.072300 0.946200
vn -0.337700 0.312800 -0.887700
vn 0.389700 -0.913500 -0.116900
vn 0.446500 0.228000 -0.865200
vn -0.137500 -0.941000 -0.309200
vn 0.565700 0.809400 -0.157800
vn -0.014000 0.192600 0.981200
vn -0.000000 -0.925800 0.377900
vn -0.050500 -0.356500 0.932900
vn 0.051600 -0.859700 0.508200
vn 0.000000 -0.923200 0.384400
vn 0.000000 -0.660500 0.750800
vn -0.189000 -0.585100 0.788700
vn -0.868200 -0.125900 0.480000
vn -0.705600 -0.661300 0.254500
vn 0.000000 -0.868600 0.495400
vn -0.842800 -0.112400 0.526300
vn -0.530900 -0.659700 0.531900
vn 0.000000 -0.921800 0.387600
vn -0.715300 -0.144300 0.683800
vn -0.252200 -0.907400 0.336100
vn -0.238700 -0.276700 0.930800
vn 0.000000 -0.171400 0.985200
vn -0.880700 -0.450100 0.147400
vn 0.080500 -0.164200 0.983100
vn 0.966900 -0.121000 0.224800
vn 0.778500 0.297900 0.552400
vn 0.057500 -0.610600 0.789800
vn 0.007300 -0.923200 0.384400
vn 0.018300 -0.981600 0.190100
vn -0.005500 -0.904700 0.426000
vn -0.369700 -0.853500 0.367100
vn 0.315400 -0.072300 -0.946200
vn -0.337700 -0.312800 0.887700
vn 0.389700 0.913500 0.116900
vn 0.446500 -0.228000 0.865200
vn -0.137500 0.941000 0.309200
vn 0.565700 -0.809400 0.157800
vn -0.014000 -0.192600 -0.981200
vn -0.000000 -0.925800 -0.377900
vn -0.050500 -0.356500 -0.932900
vn 0.051600 -0.859700 -0.508200
vn 0.000000 -0.923200 -0.384400
vn 0.000000 -0.660500 -0.750800
vn -0.189000 -0.585100 -0.788700
vn -0.868200 -0.125900 -0.480000
vn -0.705600 -0.661300 -0.254500
vn 0.000000 -0.868600 -0.495400
vn -0.842800 -0.112400 -0.526300
vn -0.530900 -0.659700 -0.531900
vn 0.000000 -0.921800 -0.387600
vn -0.715300 -0.144300 -0.683800
vn -0.252200 -0.907400 -0.336100
vn -0.238700 -0.276700 -0.930800
vn 0.000000 -0.171400 -0.985200
vn -0.880700 -0.450100 -0.147400
vn 0.080500 -0.164200 -0.983100
vn 0.966900 -0.121000 -0.224800
vn 0.778500 0.297900 -0.552400
vn 0.057500 -0.610600 -0.789800
vn 0.007300 -0.923200 -0.384400
vn 0.018300 -0.981600 -0.190100
vn -0.005500 -0.904700 -0.426000
vn -0.369700 -0.853500 -0.367100
vn 0.315400 -0.072300 0.946200
vn -0.337700 -0.312800 -0.887700
vn 0.389700 0.913500 -0.116900
vn 0.446500 -0.228000 -0.865200
vn -0.137500 0.941000 -0.309200
vn 0.565700 -0.809400 -0.157800
vn -0.014000 -0.192600 0.981200
usemtl Material.001
s off
f 30/1/1 33/2/1 2/3/1 1/4/1
f 30/5/1 1/6/1 3/7/1 34/8/1
f 64/9/2 1/4/2 2/3/2 65/10/2
f 7/11/3 11/12/3 19/13/3 18/14/3
f 3/7/4 1/6/4 4/15/4 8/16/4 5/17/4
f 1/18/5 64/19/5 69/20/5 6/21/5 4/22/5
f 8/16/6 9/23/6 7/24/6 5/17/6
f 4/15/7 6/25/7 9/23/7 8/16/7
f 15/26/8 127/27/8 85/28/8
f 12/29/9 10/30/9 13/31/9
f 7/11/10 9/32/10 12/33/10 11/12/10
f 6/21/11 69/20/11 76/34/11 10/30/11
f 9/35/12 6/21/12 10/30/12 12/29/12
f 11/12/13 12/33/13 13/36/13 14/37/13
f 10/30/14 76/34/14 80/38/14 13/31/14
f 2/3/15 33/2/15 47/39/15 15/40/15
f 65/10/16 2/3/16 15/40/16 85/41/16
f 13/36/17 80/42/17 81/43/17 14/37/17
f 47/44/18 127/27/18 15/26/18
f 14/37/19 81/43/19 91/45/19 20/46/19
f 16/47/20 86/48/20 22/49/20 24/50/20
f 86/48/21 19/51/21 20/52/21 91/53/21
f 19/51/22 86/48/22 18/54/22
f 16/47/20 17/55/20 18/54/20 86/48/20
f 5/17/23 7/24/23 18/56/23 17/57/23
f 3/7/24 5/17/24 17/57/24 16/58/24
f 11/12/25 14/37/25 20/46/25 19/13/25
f 34/8/26 3/7/26 16/58/26 49/59/26
f 23/60/27 24/61/27 28/62/27 27/63/27
f 86/48/20 129/64/20 21/65/20 22/49/20
f 49/66/20 16/47/20 24/50/20 23/67/20
f 129/64/20 49/66/20 23/67/20 21/65/20
f 21/68/28 23/69/28 27/70/28 25/71/28
f 24/61/29 22/72/29 26/73/29 28/62/29
f 22/74/30 21/75/30 25/76/30 26/77/30
f 28/62/31 26/73/31 29/78/31
f 26/77/32 25/76/32 29/79/32
f 27/80/33 28/81/33 29/82/33
f 25/71/34 27/70/34 29/83/34
f 30/1/35 31/4/35 32/3/35 33/2/35
f 30/5/35 34/8/35 35/7/35 31/6/35
f 102/9/36 103/10/36 32/3/36 31/4/36
f 39/11/37 52/14/37 53/13/37 43/12/37
f 35/7/38 37/17/38 40/16/38 36/15/38 31/6/38
f 31/18/5 36/22/5 38/21/5 110/20/5 102/19/5
f 40/16/39 37/17/39 39/24/39 41/23/39
f 36/15/40 40/16/40 41/23/40 38/25/40
f 48/26/41 128/28/41 127/27/41
f 44/29/42 45/31/42 42/30/42
f 39/11/43 43/12/43 44/33/43 41/32/43
f 38/21/44 42/30/44 117/34/44 110/20/44
f 41/35/45 44/29/45 42/30/45 38/21/45
f 43/12/46 46/37/46 45/36/46 44/33/46
f 42/30/47 45/31/47 121/38/47 117/34/47
f 32/3/48 48/40/48 47/39/48 33/2/48
f 103/10/49 128/41/49 48/40/49 32/3/49
f 45/36/50 46/37/50 122/43/50 121/42/50
f 47/44/51 48/26/51 127/27/51
f 46/37/52 54/46/52 136/45/52 122/43/52
f 50/47/20 58/50/20 56/49/20 130/48/20
f 130/48/53 136/53/53 54/52/53 53/51/53
f 53/51/54 52/54/54 130/48/54
f 50/47/20 130/48/20 52/54/20 51/55/20
f 37/17/55 51/57/55 52/56/55 39/24/55
f 35/7/56 50/58/56 51/57/56 37/17/56
f 43/12/57 53/13/57 54/46/57 46/37/57
f 34/8/58 49/59/58 50/58/58 35/7/58
f 57/60/59 61/63/59 62/62/59 58/61/59
f 130/48/20 56/49/20 55/65/20 129/64/20
f 49/66/20 57/67/20 58/50/20 50/47/20
f 129/64/20 55/65/20 57/67/20 49/66/20
f 55/68/60 59/71/60 61/70/60 57/69/60
f 58/61/61 62/62/61 60/73/61 56/72/61
f 56/74/62 60/77/62 59/76/62 55/75/62
f 62/62/63 63/78/63 60/73/63
f 60/77/64 63/79/64 59/76/64
f 61/80/65 63/82/65 62/81/65
f 59/71/66 63/83/66 61/70/66
f 104/1/67 66/4/67 67/3/67 107/2/67
f 104/5/67 108/8/67 68/7/67 66/6/67
f 64/9/68 65/10/68 67/3/68 66/4/68
f 73/11/69 89/14/69 90/13/69 78/12/69
f 68/7/70 71/17/70 74/16/70 70/15/70 66/6/70
f 66/18/5 70/22/5 72/21/5 69/20/5 64/19/5
f 74/16/71 71/17/71 73/24/71 75/23/71
f 70/15/72 74/16/72 75/23/72 72/25/72
f 84/26/73 85/28/73 127/27/73
f 79/29/74 82/31/74 77/30/74
f 73/11/75 78/12/75 79/33/75 75/32/75
f 72/21/76 77/30/76 76/34/76 69/20/76
f 75/35/77 79/29/77 77/30/77 72/21/77
f 78/12/78 83/37/78 82/36/78 79/33/78
f 77/30/79 82/31/79 80/38/79 76/34/79
f 67/3/80 84/40/80 125/39/80 107/2/80
f 65/10/81 85/41/81 84/40/81 67/3/81
f 82/36/82 83/37/82 81/43/82 80/42/82
f 125/44/83 84/26/83 127/27/83
f 83/37/84 92/46/84 91/45/84 81/43/84
f 87/47/20 96/50/20 94/49/20 86/48/20
f 86/48/85 91/53/85 92/52/85 90/51/85
f 90/51/86 89/54/86 86/48/86
f 87/47/20 86/48/20 89/54/20 88/55/20
f 71/17/87 88/57/87 89/56/87 73/24/87
f 68/7/88 87/58/88 88/57/88 71/17/88
f 78/12/89 90/13/89 92/46/89 83/37/89
f 108/8/90 131/59/90 87/58/90 68/7/90
f 95/60/91 99/63/91 100/62/91 96/61/91
f 86/48/20 94/49/20 93/65/20 129/64/20
f 131/66/20 95/67/20 96/50/20 87/47/20
f 129/64/20 93/65/20 95/67/20 131/66/20
f 93/68/92 97/71/92 99/70/92 95/69/92
f 96/61/93 100/62/93 98/73/93 94/72/93
f 94/74/94 98/77/94 97/76/94 93/75/94
f 100/62/95 101/78/95 98/73/95
f 98/77/96 101/79/96 97/76/96
f 99/80/97 101/82/97 100/81/97
f 97/71/98 101/83/98 99/70/98
f 104/1/99 107/2/99 106/3/99 105/4/99
f 104/5/99 105/6/99 109/7/99 108/8/99
f 102/9/100 105/4/100 106/3/100 103/10/100
f 114/11/101 119/12/101 135/13/101 134/14/101
f 109/7/102 105/6/102 111/15/102 115/16/102 112/17/102
f 105/18/5 102/19/5 110/20/5 113/21/5 111/22/5
f 115/16/103 116/23/103 114/24/103 112/17/103
f 111/15/104 113/25/104 116/23/104 115/16/104
f 126/26/105 127/27/105 128/28/105
f 120/29/106 118/30/106 123/31/106
f 114/11/107 116/32/107 120/33/107 119/12/107
f 113/21/108 110/20/108 117/34/108 118/30/108
f 116/35/109 113/21/109 118/30/109 120/29/109
f 119/12/110 120/33/110 123/36/110 124/37/110
f 118/30/111 117/34/111 121/38/111 123/31/111
f 106/3/112 107/2/112 125/39/112 126/40/112
f 103/10/113 106/3/113 126/40/113 128/41/113
f 123/36/114 121/42/114 122/43/114 124/37/114
f 125/44/115 127/27/115 126/26/115
f 124/37/116 122/43/116 136/45/116 137/46/116
f 132/47/20 130/48/20 139/49/20 141/50/20
f 130/48/117 135/51/117 137/52/117 136/53/117
f 135/51/118 130/48/118 134/54/118
f 132/47/20 133/55/20 134/54/20 130/48/20
f 112/17/119 114/24/119 134/56/119 133/57/119
f 109/7/120 112/17/120 133/57/120 132/58/120
f 119/12/121 124/37/121 137/46/121 135/13/121
f 108/8/122 109/7/122 132/58/122 131/59/122
f 140/60/123 141/61/123 145/62/123 144/63/123
f 130/48/20 129/64/20 138/65/20 139/49/20
f 131/66/20 132/47/20 141/50/20 140/67/20
f 129/64/20 131/66/20 140/67/20 138/65/20
f 138/68/124 140/69/124 144/70/124 142/71/124
f 141/61/125 139/72/125 143/73/125 145/62/125
f 139/74/126 138/75/126 142/76/126 143/77/126
f 145/62/127 143/73/127 146/78/127
f 143/77/128 142/76/128 146/79/128
f 144/80/129 145/81/129 146/82/129
f 142/71/130 144/70/130 146/83/130
