# Blender v2.75 (sub 0) OBJ File: ''
# www.blender.org
mtllib equipment3.mtl
o Cube
v 0.999999 0.776361 0.739640
v -0.013900 0.776361 0.739639
v -0.395173 0.882827 0.792862
v -1.028804 0.882827 0.792862
v -1.478130 0.776360 0.739639
v -1.610854 0.776360 0.739639
v 1.000000 0.144621 0.897389
v 1.000000 0.900379 0.141631
v 0.999999 0.731362 0.700620
v 1.900055 0.087024 0.085225
v 1.900055 0.087024 0.889266
v 1.900056 0.891065 0.085225
v 1.900055 0.711250 0.679926
v 2.437080 0.224170 0.219537
v 2.437080 0.224170 0.714752
v 2.437080 0.719385 0.219537
v 2.437079 0.608636 0.585818
v 1.998089 0.723150 1.194234
v 3.087447 0.173970 0.219538
v -1.610853 0.241889 0.692202
v -1.610853 0.241889 0.236888
v -1.610853 0.595377 0.573656
v -1.610853 0.697203 0.236889
v -1.746923 0.296518 0.622689
v -1.746923 0.296518 0.290387
v -1.746923 0.554504 0.536171
v -1.746923 0.628819 0.290388
v 1.000000 1.000000 0.000000
v 0.999999 0.776361 -0.739640
v -0.013900 0.776361 -0.739639
v -0.013900 1.000000 0.000000
v -0.395173 0.882827 -0.792862
v -0.395173 1.128008 0.000000
v -1.028804 0.882827 -0.792862
v -1.028803 1.128008 0.000000
v -1.478130 0.776360 -0.739639
v -1.478130 0.999999 0.000000
v -1.610854 0.776360 -0.739639
v -1.610853 0.999999 0.000000
v 1.000000 0.144621 -0.897389
v 1.000000 0.900379 -0.141631
v 0.999999 0.731362 -0.700620
v 1.900055 0.087024 -0.085225
v 1.900055 0.087024 -0.889266
v 1.900056 0.891065 -0.085225
v 1.900055 0.711250 -0.679926
v 2.437080 0.224170 -0.219537
v 2.437080 0.224170 -0.714752
v 2.437080 0.719385 -0.219537
v 2.437079 0.608636 -0.585818
v 1.998089 0.723150 -1.194234
v 3.087447 0.173970 -0.219538
v -1.610853 0.241889 -0.692202
v -1.610853 0.241889 -0.236888
v -1.610853 0.595377 -0.573656
v -1.610853 0.697203 -0.236889
v -1.746923 0.296518 -0.622689
v -1.746923 0.296518 -0.290387
v -1.746923 0.554504 -0.536171
v -1.746923 0.628819 -0.290388
v 1.000000 0.000000 1.000000
v -0.013900 0.000000 1.000000
v 0.999999 -0.776361 0.739640
v -0.013900 -0.776361 0.739639
v -0.395173 0.000000 1.100031
v -0.395173 -0.882827 0.792862
v -1.028803 0.000000 1.100030
v -1.028804 -0.882827 0.792862
v -1.478130 0.000000 0.999999
v -1.478130 -0.776360 0.739639
v -1.610853 0.000000 0.999999
v -1.610854 -0.776360 0.739639
v 1.000000 -0.144621 0.897389
v 1.000000 -0.900379 0.141631
v 0.999999 -0.731362 0.700620
v 1.900055 -0.087024 0.085225
v 1.900055 -0.087024 0.889266
v 1.900056 -0.891065 0.085225
v 1.900055 -0.711250 0.679926
v 2.437080 -0.224170 0.219537
v 2.437080 -0.224170 0.714752
v 2.437080 -0.719385 0.219537
v 2.437079 -0.608636 0.585818
v 1.998089 -0.723150 1.194234
v 3.087447 -0.173970 0.219538
v -1.610853 -0.241889 0.692202
v -1.610853 -0.241889 0.236888
v -1.610853 -0.595377 0.573656
v -1.610853 -0.697203 0.236889
v -1.746923 -0.296518 0.622689
v -1.746923 -0.296518 0.290387
v -1.746923 -0.554504 0.536171
v -1.746923 -0.628819 0.290388
v 1.000000 0.000000 0.000000
v 1.000000 0.000000 -1.000000
v -0.013900 0.000000 -1.000000
v 1.000000 -1.000000 0.000000
v 0.999999 -0.776361 -0.739640
v -0.013900 -0.776361 -0.739639
v -0.013900 -1.000000 0.000000
v -0.395173 0.000000 -1.100031
v -0.395173 -0.882827 -0.792862
v -0.395173 -1.128008 0.000000
v -1.028803 0.000000 -1.100030
v -1.028804 -0.882827 -0.792862
v -1.028803 -1.128008 0.000000
v -1.478130 0.000000 -0.999999
v -1.478129 0.000000 0.000000
v -1.478130 -0.776360 -0.739639
v -1.478130 -0.999999 0.000000
v -1.610853 0.000000 -0.999999
v -1.696296 0.000000 0.000000
v -1.610854 -0.776360 -0.739639
v -1.610853 -0.999999 0.000000
v 1.000000 0.000000 0.000000
v 1.000000 -0.144621 -0.897389
v 1.000000 -0.900379 -0.141631
v 0.999999 -0.731362 -0.700620
v 1.900055 -0.087024 -0.085225
v 1.900055 -0.087024 -0.889266
v 1.900056 -0.891065 -0.085225
v 1.900055 -0.711250 -0.679926
v 2.437080 -0.224170 -0.219537
v 2.437080 -0.224170 -0.714752
v 2.437080 -0.719385 -0.219537
v 2.437079 -0.608636 -0.585818
v 1.998089 -0.723150 -1.194234
v 3.087447 -0.173970 -0.219538
v -1.610853 -0.241889 -0.692202
v -1.610853 -0.241889 -0.236888
v -1.610853 -0.595377 -0.573656
v -1.610853 -0.697203 -0.236889
v -1.746923 -0.296518 -0.622689
v -1.746923 -0.296518 -0.290387
v -1.746923 -0.554504 -0.536171
v -1.746923 -0.628819 -0.290388
vt 0.518888 0.610795
vt 0.518888 0.379643
vt 0.705016 0.380089
vt 0.705016 0.611241
vt 0.302204 0.820952
vt 0.475700 0.765830
vt 0.443381 0.787554
vt 0.312261 0.829214
vt 0.022769 0.041538
vt 0.202992 0.041515
vt 0.202992 0.252761
vt 0.022769 0.252784
vt 0.511195 0.291002
vt 0.711043 0.291553
vt 0.221422 0.331499
vt 0.015700 0.331438
vt 0.711043 0.147096
vt 0.511195 0.146545
vt 0.518888 0.045824
vt 0.705016 0.046270
vt 0.221422 0.463516
vt 0.015700 0.463455
vt 0.202992 0.557833
vt 0.022770 0.557856
vt 0.294590 0.689232
vt 0.237121 0.511962
vt 0.314097 0.568699
vt 0.340263 0.649413
vt 0.518888 0.015565
vt 0.705016 0.016011
vt 0.202992 0.585486
vt 0.022770 0.585509
vt 0.429128 0.478553
vt 0.303550 0.448246
vt 0.355634 0.265412
vt 0.489235 0.297655
vt 0.475700 0.977547
vt 0.252227 0.977547
vt 0.274490 0.947561
vt 0.962475 0.463222
vt 0.754851 0.463222
vt 0.757869 0.266866
vt 0.942784 0.267488
vt 0.661164 0.825412
vt 0.532321 0.823743
vt 0.524090 0.646415
vt 0.661164 0.648191
vt 0.933085 0.961910
vt 0.718083 0.961910
vt 0.737438 0.759332
vt 0.929392 0.757911
vt 0.769362 0.639249
vt 0.887588 0.638374
vt 0.399254 0.157894
vt 0.481540 0.177753
vt 0.797219 0.150664
vt 0.911110 0.151047
vt 0.489235 0.031772
vt 0.768050 0.491738
vt 0.126310 0.627024
vt 0.126310 0.785212
vt 0.000000 0.663262
vt 0.253859 0.221714
vt 0.249033 0.905785
vt 0.153333 0.905785
vt 0.173364 0.768669
vt 0.120689 0.909711
vt 0.000000 0.837195
vt 0.120689 0.785212
vt 0.923129 0.009397
vt 0.249033 0.768669
vt 0.153333 0.768669
vt 0.179661 0.627677
vt 0.716454 0.629643
vt 0.716454 0.725957
vt 0.685508 0.711473
vt 0.685508 0.641181
vt 0.491573 0.751519
vt 0.429952 0.677773
vt 0.491573 0.510325
vt 0.429455 0.568625
vt 0.521653 0.975759
vt 0.553178 0.886476
vt 0.642735 0.860480
vt 0.642735 0.975342
vt 0.978354 0.830455
vt 0.978354 0.914939
vt 0.944669 0.898471
vt 0.944669 0.836812
vt 0.944669 0.830455
vt 0.944669 0.740848
vt 0.979649 0.747263
vt 0.979649 0.812661
vt 0.715182 0.737187
vt 0.715182 0.833509
vt 0.684531 0.821772
vt 0.684531 0.751473
vt 0.980478 0.495630
vt 0.950370 0.495641
vt 0.930988 0.710584
vt 0.980478 0.710566
vn -0.000000 0.957200 0.289400
vn 1.000000 0.000000 0.000000
vn -0.000000 0.318000 0.948100
vn 0.300000 0.912200 0.279100
vn 0.229100 0.315000 0.921000
vn -0.257800 0.923900 0.282600
vn -0.000000 0.955400 0.295400
vn -0.000000 0.328600 0.944500
vn -0.195800 0.317400 0.927900
vn -1.000000 -0.000000 -0.000000
vn 0.028000 0.956800 0.289300
vn 0.012400 0.082800 -0.996500
vn 0.028900 0.317800 0.947700
vn 0.012700 -0.996300 0.084700
vn 0.247400 -0.968900 0.000000
vn 0.227500 0.932100 0.281800
vn 0.242600 0.000000 -0.970100
vn 0.626000 0.746500 0.225700
vn -0.077000 -0.997000 0.000000
vn -0.980700 0.062200 0.185500
vn 0.177800 0.982400 -0.056600
vn 0.813100 0.185100 0.551900
vn 0.377700 -0.447000 0.810900
vn 0.000000 0.000000 -1.000000
vn 0.598200 0.254800 0.759800
vn -0.372600 -0.928000 -0.000000
vn -0.981200 0.057600 0.184400
vn -0.981600 0.181800 0.057600
vn -0.344700 0.898500 0.271700
vn -0.336000 0.299500 0.893000
vn -0.365900 0.000000 -0.930700
vn -0.000000 0.957200 -0.289400
vn -0.000000 0.318000 -0.948100
vn 0.300000 0.912200 -0.279100
vn 0.229100 0.315000 -0.921000
vn -0.257800 0.923900 -0.282600
vn -0.000000 0.955400 -0.295400
vn -0.000000 0.328600 -0.944500
vn 0.000000 0.000000 1.000000
vn -0.195800 0.317400 -0.927900
vn 0.028000 0.956800 -0.289300
vn 0.012400 0.082800 0.996500
vn 0.028900 0.317800 -0.947700
vn 0.012700 -0.996300 -0.084700
vn 0.227500 0.932100 -0.281800
vn 0.242600 0.000000 0.970100
vn 0.626000 0.746500 -0.225700
vn -0.980700 0.062200 -0.185500
vn 0.177800 0.982400 0.056600
vn 0.813100 0.185100 -0.551900
vn 0.377700 -0.447000 -0.810900
vn 0.598200 0.254800 -0.759800
vn -0.981200 0.057600 -0.184400
vn -0.981600 0.181800 -0.057600
vn -0.344700 0.898500 -0.271700
vn -0.336000 0.299500 -0.893000
vn -0.365900 0.000000 0.930700
vn -0.000000 -0.957200 0.289400
vn -0.000000 -0.318000 0.948100
vn 0.300000 -0.912200 0.279100
vn 0.229100 -0.315000 0.921000
vn -0.257800 -0.923900 0.282600
vn -0.000000 -0.955400 0.295400
vn -0.000000 -0.328600 0.944500
vn -0.195800 -0.317400 0.927900
vn 0.028000 -0.956800 0.289300
vn 0.012400 -0.082800 -0.996500
vn 0.028900 -0.317800 0.947700
vn 0.012700 0.996300 0.084700
vn 0.247400 0.968900 0.000000
vn 0.227500 -0.932100 0.281800
vn 0.626000 -0.746500 0.225700
vn -0.077000 0.997000 0.000000
vn -0.980700 -0.062200 0.185500
vn 0.177800 -0.982400 -0.056600
vn 0.813100 -0.185100 0.551900
vn 0.377700 0.447000 0.810900
vn 0.598200 -0.254800 0.759800
vn -0.372600 0.928000 -0.000000
vn -0.981200 -0.057600 0.184400
vn -0.981600 -0.181800 0.057600
vn -0.344700 -0.898500 0.271700
vn -0.336000 -0.299500 0.893000
vn -0.000000 -0.957200 -0.289400
vn -0.000000 -0.318000 -0.948100
vn 0.300000 -0.912200 -0.279100
vn 0.229100 -0.315000 -0.921000
vn -0.257800 -0.923900 -0.282600
vn -0.000000 -0.955400 -0.295400
vn -0.000000 -0.328600 -0.944500
vn -0.195800 -0.317400 -0.927900
vn 0.028000 -0.956800 -0.289300
vn 0.012400 -0.082800 0.996500
vn 0.028900 -0.317800 -0.947700
vn 0.012700 0.996300 -0.084700
vn 0.227500 -0.932100 -0.281800
vn 0.626000 -0.746500 -0.225700
vn -0.980700 -0.062200 -0.185500
vn 0.177800 -0.982400 0.056600
vn 0.813100 -0.185100 -0.551900
vn 0.377700 0.447000 -0.810900
vn 0.598200 -0.254800 -0.759800
vn -0.981200 -0.057600 -0.184400
vn -0.981600 -0.181800 -0.057600
vn -0.344700 -0.898500 -0.271700
vn -0.336000 -0.299500 -0.893000
usemtl Material.001
s off
f 28/1/1 31/2/1 2/3/1 1/4/1
f 1/5/2 61/6/2 7/7/2 9/8/2
f 61/9/3 1/10/3 2/11/3 62/12/3
f 2/3/4 31/2/4 33/13/4 3/14/4
f 62/12/5 2/11/5 3/15/5 65/16/5
f 4/17/6 35/18/6 37/19/6 5/20/6
f 3/14/7 33/13/7 35/18/7 4/17/7
f 65/16/8 3/15/8 4/21/8 67/22/8
f 67/22/9 4/21/9 5/23/9 69/24/9
f 6/25/10 39/26/10 23/27/10 22/28/10
f 5/20/1 37/19/1 39/29/1 6/30/1
f 69/24/3 5/23/3 6/31/3 71/32/3
f 8/33/11 9/34/11 13/35/11 12/36/11
f 94/37/2 28/38/2 8/39/2 115/37/2
f 61/6/2 94/37/2 115/37/2 7/7/2
f 28/38/2 1/5/2 9/8/2 8/39/2
f 115/40/12 8/41/12 12/42/12 10/43/12
f 9/44/13 7/45/13 11/46/13 13/47/13
f 7/48/14 115/49/14 10/50/14 11/51/14
f 11/51/15 10/50/15 14/52/15 15/53/15
f 12/36/16 13/35/16 17/54/16 16/55/16
f 10/43/17 12/42/17 16/56/17 14/57/17
f 16/55/18 17/54/18 19/58/18
f 15/53/19 14/52/19 19/59/19
f 13/60/20 11/61/20 18/62/20
f 17/54/21 13/35/21 18/63/21
f 15/64/22 17/65/22 18/66/22
f 11/67/23 15/68/23 18/69/23
f 14/57/24 16/56/24 19/70/24
f 17/71/25 15/72/25 19/73/25
f 21/74/26 20/75/26 24/76/26 25/77/26
f 71/78/10 6/25/10 22/28/10 20/79/10
f 39/26/27 112/80/27 21/81/27 23/27/27
f 112/80/28 71/78/28 20/79/28 21/81/28
f 24/82/10 26/83/10 27/84/10 25/85/10
f 22/86/29 23/87/29 27/88/29 26/89/29
f 20/90/30 22/91/30 26/92/30 24/93/30
f 23/94/31 21/95/31 25/96/31 27/97/31
f 28/1/32 29/4/32 30/3/32 31/2/32
f 29/5/2 42/8/2 40/7/2 95/6/2
f 95/9/33 96/12/33 30/11/33 29/10/33
f 30/3/34 32/14/34 33/13/34 31/2/34
f 96/12/35 101/16/35 32/15/35 30/11/35
f 34/17/36 36/20/36 37/19/36 35/18/36
f 32/14/37 34/17/37 35/18/37 33/13/37
f 101/16/38 104/22/38 34/21/38 32/15/38
f 37/98/39 39/99/39 112/100/39 108/101/39
f 104/22/40 107/24/40 36/23/40 34/21/40
f 38/25/10 55/28/10 56/27/10 39/26/10
f 36/20/32 38/30/32 39/29/32 37/19/32
f 107/24/33 111/32/33 38/31/33 36/23/33
f 41/33/41 45/36/41 46/35/41 42/34/41
f 94/37/2 115/37/2 41/39/2 28/38/2
f 95/6/2 40/7/2 115/37/2 94/37/2
f 28/38/2 41/39/2 42/8/2 29/5/2
f 115/40/42 43/43/42 45/42/42 41/41/42
f 42/44/43 46/47/43 44/46/43 40/45/43
f 40/48/44 44/51/44 43/50/44 115/49/44
f 44/51/15 48/53/15 47/52/15 43/50/15
f 45/36/45 49/55/45 50/54/45 46/35/45
f 43/43/46 47/57/46 49/56/46 45/42/46
f 49/55/47 52/58/47 50/54/47
f 48/53/19 52/59/19 47/52/19
f 46/60/48 51/62/48 44/61/48
f 50/54/49 51/63/49 46/35/49
f 48/64/50 51/66/50 50/65/50
f 44/67/51 51/69/51 48/68/51
f 47/57/39 52/70/39 49/56/39
f 50/71/52 52/73/52 48/72/52
f 54/74/26 58/77/26 57/76/26 53/75/26
f 111/78/10 53/79/10 55/28/10 38/25/10
f 39/26/53 56/27/53 54/81/53 112/80/53
f 112/80/54 54/81/54 53/79/54 111/78/54
f 57/82/10 58/85/10 60/84/10 59/83/10
f 55/86/55 59/89/55 60/88/55 56/87/55
f 53/90/56 57/93/56 59/92/56 55/91/56
f 56/94/57 60/97/57 58/96/57 54/95/57
f 97/1/58 63/4/58 64/3/58 100/2/58
f 63/5/2 75/8/2 73/7/2 61/6/2
f 61/9/59 62/12/59 64/11/59 63/10/59
f 64/3/60 66/14/60 103/13/60 100/2/60
f 62/12/61 65/16/61 66/15/61 64/11/61
f 68/17/62 70/20/62 110/19/62 106/18/62
f 66/14/63 68/17/63 106/18/63 103/13/63
f 65/16/64 67/22/64 68/21/64 66/15/64
f 67/22/65 69/24/65 70/23/65 68/21/65
f 72/25/10 88/28/10 89/27/10 114/26/10
f 70/20/58 72/30/58 114/29/58 110/19/58
f 69/24/59 71/32/59 72/31/59 70/23/59
f 74/33/66 78/36/66 79/35/66 75/34/66
f 94/37/2 115/37/2 74/39/2 97/38/2
f 61/6/2 73/7/2 115/37/2 94/37/2
f 97/38/2 74/39/2 75/8/2 63/5/2
f 115/40/67 76/43/67 78/42/67 74/41/67
f 75/44/68 79/47/68 77/46/68 73/45/68
f 73/48/69 77/51/69 76/50/69 115/49/69
f 77/51/70 81/53/70 80/52/70 76/50/70
f 78/36/71 82/55/71 83/54/71 79/35/71
f 76/43/17 80/57/17 82/56/17 78/42/17
f 82/55/72 85/58/72 83/54/72
f 81/53/73 85/59/73 80/52/73
f 79/60/74 84/62/74 77/61/74
f 83/54/75 84/63/75 79/35/75
f 81/64/76 84/66/76 83/65/76
f 77/67/77 84/69/77 81/68/77
f 80/57/24 85/70/24 82/56/24
f 83/71/78 85/73/78 81/72/78
f 87/74/79 91/77/79 90/76/79 86/75/79
f 71/78/10 86/79/10 88/28/10 72/25/10
f 114/26/80 89/27/80 87/81/80 112/80/80
f 112/80/81 87/81/81 86/79/81 71/78/81
f 90/82/10 91/85/10 93/84/10 92/83/10
f 88/86/82 92/89/82 93/88/82 89/87/82
f 86/90/83 90/93/83 92/92/83 88/91/83
f 89/94/31 93/97/31 91/96/31 87/95/31
f 97/1/84 100/2/84 99/3/84 98/4/84
f 98/5/2 95/6/2 116/7/2 118/8/2
f 95/9/85 98/10/85 99/11/85 96/12/85
f 99/3/86 100/2/86 103/13/86 102/14/86
f 96/12/87 99/11/87 102/15/87 101/16/87
f 105/17/88 106/18/88 110/19/88 109/20/88
f 102/14/89 103/13/89 106/18/89 105/17/89
f 101/16/90 102/15/90 105/21/90 104/22/90
f 110/98/39 108/101/39 112/100/39 114/99/39
f 104/22/91 105/21/91 109/23/91 107/24/91
f 113/25/10 114/26/10 132/27/10 131/28/10
f 109/20/84 110/19/84 114/29/84 113/30/84
f 107/24/85 109/23/85 113/31/85 111/32/85
f 117/33/92 118/34/92 122/35/92 121/36/92
f 94/37/2 97/38/2 117/39/2 115/37/2
f 95/6/2 94/37/2 115/37/2 116/7/2
f 97/38/2 98/5/2 118/8/2 117/39/2
f 115/40/93 117/41/93 121/42/93 119/43/93
f 118/44/94 116/45/94 120/46/94 122/47/94
f 116/48/95 115/49/95 119/50/95 120/51/95
f 120/51/70 119/50/70 123/52/70 124/53/70
f 121/36/96 122/35/96 126/54/96 125/55/96
f 119/43/46 121/42/46 125/56/46 123/57/46
f 125/55/97 126/54/97 128/58/97
f 124/53/73 123/52/73 128/59/73
f 122/60/98 120/61/98 127/62/98
f 126/54/99 122/35/99 127/63/99
f 124/64/100 126/65/100 127/66/100
f 120/67/101 124/68/101 127/69/101
f 123/57/39 125/56/39 128/70/39
f 126/71/102 124/72/102 128/73/102
f 130/74/79 129/75/79 133/76/79 134/77/79
f 111/78/10 113/25/10 131/28/10 129/79/10
f 114/26/103 112/80/103 130/81/103 132/27/103
f 112/80/104 111/78/104 129/79/104 130/81/104
f 133/82/10 135/83/10 136/84/10 134/85/10
f 131/86/105 132/87/105 136/88/105 135/89/105
f 129/90/106 131/91/106 135/92/106 133/93/106
f 132/94/57 130/95/57 134/96/57 136/97/57
