# Blender v2.75 (sub 0) OBJ File: ''
# www.blender.org
mtllib dfhfdjhffsdhddhdfhdfhdfhdfhdsfhs.mtl
o Cube.001
v 0.000000 -3.731779 11.761253
v -4.081152 -3.731779 11.761253
v -4.081152 -3.731777 -0.877980
v 0.000000 -3.731777 -0.877979
v -4.549649 1.406970 -0.877981
v -4.081154 1.406968 10.368952
v -3.379821 4.115823 7.860588
v -3.848316 5.223456 -0.877980
v 0.000000 1.406968 11.761255
v -4.081155 1.406968 15.521184
v 0.000000 1.406968 15.521187
v -7.189982 1.406967 11.761252
v -7.189983 1.406967 13.639100
v -4.081153 -2.795873 15.521186
v -3.650892 -2.352783 15.521186
v -3.650894 0.963877 15.521184
v -7.189981 -2.795873 13.639101
v -7.189981 -2.795873 11.761254
v 0.000000 -2.795873 15.521186
v -7.189980 1.406969 -0.877981
v -7.189980 -2.795871 -0.877981
v -4.549648 1.406970 -4.868802
v -7.189978 1.406969 -4.868803
v -7.189980 -2.795871 -4.868803
v -7.189975 1.406968 -7.602759
v -7.189977 -2.795872 -7.602757
v -4.549645 1.406969 -7.602757
v -4.081151 -3.731778 -4.868803
v 0.000000 -3.731778 -4.868801
v -7.189980 -1.680550 -3.809746
v -7.189979 0.291649 -3.809746
v 0.000000 4.115823 9.252892
v 0.000000 5.223456 -0.877979
v -3.848315 5.223457 -4.868801
v -7.189980 0.291648 -1.937038
v -7.940456 0.291649 -3.809746
v -7.940457 0.291648 -1.937038
v -7.189980 -1.680551 -1.937037
v -7.940457 -1.680550 -1.937037
v -8.306516 0.291649 1.681420
v -8.306516 -1.680550 1.681421
v -7.940457 -1.680550 -3.809746
v -12.296041 -1.680550 -1.937038
v -12.296041 0.291649 -1.937038
v -12.296040 0.291650 -3.809746
v -12.296041 -1.680549 -3.809746
v -8.306515 -2.855658 -1.937037
v -8.306515 -2.855658 -3.809747
v -11.992091 0.291649 -6.186579
v -11.992092 -1.680550 -6.186580
v -8.306515 1.632847 -1.937038
v -8.306515 1.632848 1.104357
v -11.992093 0.291649 1.681420
v -11.992093 -1.680550 1.681420
v -8.306514 0.291649 -6.186579
v -8.306513 1.632848 -6.186579
v -8.306514 1.632848 -3.809746
v -11.992092 -2.855658 -6.186580
v -11.992093 -2.855657 -3.809746
v -8.306515 -1.680550 -6.186580
v -11.992093 -2.855658 -1.937037
v -11.992093 1.632848 1.104357
v -11.992092 1.632848 -1.937038
v -11.992091 1.632848 -3.809746
v -11.992091 1.632848 -6.186579
v -8.306516 -2.855658 1.104357
v -11.992093 -2.855658 1.104357
v -8.306515 -2.855658 -6.186580
v -3.848312 5.223456 -7.602756
v -3.848320 5.223456 -15.842392
v -4.081146 1.406970 -18.111317
v 0.000000 -3.731778 -7.602757
v -4.081148 -3.731778 -7.602757
v -4.081147 -3.731778 -15.842394
v 0.000000 -3.731778 -15.842392
v -7.189974 1.406969 -15.842394
v -4.081146 1.406969 -21.062387
v -7.189974 1.406969 -19.406412
v 0.000000 1.406970 -18.111317
v 0.000000 5.223456 -15.842392
v -7.189975 -2.795871 -15.842393
v -8.390954 -2.795870 -15.842393
v -8.390952 1.406970 -15.842394
v -8.390952 1.406969 -19.406412
v -8.390953 -2.795870 -19.406412
v -8.390955 -2.795871 -8.402818
v -8.390954 1.406969 -8.402819
v -4.081147 -2.795870 -21.062387
v 0.000000 1.406969 -21.062387
v 0.000000 -2.795870 -21.062386
v -7.189975 -2.795871 -19.406412
v -2.932620 5.895706 -1.823199
v 0.000000 5.895706 -1.823198
v 0.000000 5.895706 -4.757933
v -2.932618 5.895706 -4.757934
v 0.000000 5.910750 -7.640167
v -2.932616 5.895707 -7.640161
v -2.932616 5.895709 -7.640161
v 0.000000 5.910750 -7.640161
v 0.000000 5.910763 -15.069972
v -2.932616 5.910763 -15.069972
v -3.650892 -2.352782 15.144563
v -3.650894 0.963878 15.144561
v 0.000000 -2.352783 15.521186
v 0.000000 0.963877 15.521187
v 0.000000 -2.352782 15.144563
v 0.000000 0.963878 15.144564
v 4.081152 -3.731777 -0.877980
v 4.081152 -3.731779 11.761253
v 4.549649 1.406970 -0.877981
v 3.848316 5.223456 -0.877980
v 3.379821 4.115823 7.860588
v 4.081154 1.406968 10.368952
v 4.081155 1.406968 15.521184
v 7.189983 1.406967 13.639100
v 7.189982 1.406967 11.761252
v 0.000000 1.406970 -0.877980
v 0.000000 1.406970 -4.868801
v 3.650894 0.963877 15.521184
v 3.650892 -2.352783 15.521186
v 4.081153 -2.795873 15.521186
v 7.189981 -2.795873 11.761254
v 7.189981 -2.795873 13.639101
v 7.189980 -2.795871 -0.877981
v 7.189980 1.406969 -0.877981
v 7.189978 1.406969 -4.868803
v 4.549648 1.406970 -4.868802
v 7.189980 -2.795871 -4.868803
v 7.189977 -2.795872 -7.602757
v 7.189975 1.406968 -7.602759
v 4.549645 1.406969 -7.602757
v 4.081151 -3.731778 -4.868803
v 7.189979 0.291649 -3.809746
v 7.189980 -1.680550 -3.809746
v 0.000000 5.223457 -4.868800
v 3.848315 5.223457 -4.868801
v 7.189980 0.291648 -1.937038
v 7.940457 0.291648 -1.937038
v 7.940456 0.291649 -3.809746
v 7.189980 -1.680551 -1.937037
v 7.940457 -1.680550 -1.937037
v 8.306516 -1.680550 1.681421
v 8.306516 0.291649 1.681420
v 7.940457 -1.680550 -3.809746
v 12.296041 -1.680550 -1.937038
v 12.296041 -1.680549 -3.809746
v 12.296040 0.291650 -3.809746
v 12.296041 0.291649 -1.937038
v 8.306515 -2.855658 -3.809747
v 8.306515 -2.855658 -1.937037
v 11.992092 -1.680550 -6.186580
v 11.992091 0.291649 -6.186579
v 8.306515 1.632848 1.104357
v 8.306515 1.632847 -1.937038
v 11.992093 -1.680550 1.681420
v 11.992093 0.291649 1.681420
v 8.306514 1.632848 -3.809746
v 8.306513 1.632848 -6.186579
v 8.306514 0.291649 -6.186579
v 11.992093 -2.855657 -3.809747
v 11.992092 -2.855658 -6.186580
v 8.306515 -1.680550 -6.186580
v 11.992093 -2.855658 -1.937038
v 11.992092 1.632848 -1.937039
v 11.992093 1.632848 1.104357
v 11.992091 1.632848 -3.809747
v 11.992091 1.632848 -6.186579
v 11.992093 -2.855658 1.104357
v 8.306516 -2.855658 1.104357
v 8.306515 -2.855658 -6.186580
v 4.081146 1.406970 -18.111317
v 3.848319 5.223456 -15.842392
v 3.848312 5.223456 -7.602756
v 4.081147 -3.731778 -15.842394
v 4.081148 -3.731778 -7.602757
v 0.000000 1.406969 -7.602757
v 0.000000 5.223456 -7.602756
v 7.189974 1.406969 -15.842394
v 7.189974 1.406969 -19.406412
v 4.081145 1.406969 -21.062387
v 7.189975 -2.795871 -15.842393
v 8.390954 -2.795870 -15.842393
v 8.390953 -2.795870 -19.406412
v 8.390952 1.406969 -19.406412
v 8.390952 1.406970 -15.842394
v 8.390955 -2.795871 -8.402818
v 8.390954 1.406969 -8.402819
v 4.081146 -2.795870 -21.062387
v 7.189975 -2.795871 -19.406412
v 2.932620 5.895706 -1.823199
v 2.932618 5.895706 -4.757934
v 2.932616 5.895707 -7.640161
v 2.932616 5.895709 -7.640161
v 2.932616 5.910763 -15.069972
v 3.650894 0.963878 15.144561
v 3.650892 -2.352782 15.144563
vt 0.209913 0.093731
vt 0.311933 0.093731
vt 0.311933 0.408813
vt 0.209913 0.408813
vt 0.620132 0.280348
vt 0.620486 0.000000
vt 0.688700 0.062563
vt 0.716022 0.280379
vt 0.000157 0.817751
vt 0.102177 0.783059
vt 0.102177 0.911419
vt 0.000157 0.911424
vt 0.179891 0.817742
vt 0.179891 0.864526
vt 0.821036 0.496854
vt 0.925869 0.495109
vt 0.914997 0.506017
vt 0.832268 0.507394
vt 0.311933 0.000000
vt 0.389647 0.046918
vt 0.389647 0.093731
vt 0.209913 0.000000
vt 0.821036 0.482722
vt 0.716022 0.482729
vt 0.716022 0.167647
vt 0.821036 0.167641
vt 0.821036 0.529535
vt 0.716022 0.529541
vt 0.389647 0.408813
vt 0.822739 0.419315
vt 0.927572 0.417570
vt 0.113888 0.502860
vt 0.179891 0.502857
vt 0.113888 0.403436
vt 0.179891 0.403432
vt 0.821036 0.068154
vt 0.716022 0.068161
vt 0.716022 0.000007
vt 0.821036 0.000000
vt 0.113888 0.335324
vt 0.179891 0.335320
vt 0.311933 0.508300
vt 0.209913 0.508300
vt 0.389647 0.508300
vt 0.793168 0.094557
vt 0.743890 0.094560
vt 0.000063 0.752873
vt 0.000024 0.499504
vt 0.096223 0.499499
vt 0.084551 0.718182
vt 0.620132 0.379835
vt 0.716022 0.379866
vt 0.927390 0.093341
vt 0.927390 0.046685
vt 0.946151 0.046685
vt 0.946151 0.093340
vt 0.793168 0.141242
vt 0.743890 0.141245
vt 0.903823 0.302603
vt 0.854523 0.302605
vt 0.854563 0.212453
vt 0.903863 0.212452
vt 0.939065 0.803855
vt 0.939065 0.852920
vt 0.920305 0.852920
vt 0.920305 0.803855
vt 0.946151 0.000000
vt 0.927390 0.000000
vt 0.920305 0.902053
vt 0.920305 0.852994
vt 0.939031 0.852920
vt 0.939031 0.901978
vt 0.799041 0.909809
vt 0.749763 0.909812
vt 0.749763 0.863128
vt 0.799041 0.863124
vt 0.903823 0.349287
vt 0.933238 0.302654
vt 0.933238 0.349338
vt 0.749534 0.803860
vt 0.798812 0.803857
vt 0.821036 0.302657
vt 0.821036 0.226840
vt 0.603762 0.848396
vt 0.603762 0.897461
vt 0.511630 0.897461
vt 0.511630 0.848396
vt 0.854523 0.349288
vt 0.854563 0.408591
vt 0.821036 0.408592
vt 0.821036 0.349341
vt 0.798812 0.999997
vt 0.749534 1.000000
vt 0.828174 0.803855
vt 0.828174 0.863107
vt 0.511630 0.851606
vt 0.511630 0.900665
vt 0.419668 0.901031
vt 0.419668 0.851973
vt 0.828174 0.909791
vt 0.903863 0.408590
vt 0.716022 0.985617
vt 0.716022 0.909798
vt 0.920305 0.879626
vt 0.920305 0.926282
vt 0.828174 0.926286
vt 0.828174 0.879631
vt 0.920305 0.985496
vt 0.828174 0.985501
vt 0.603762 0.929910
vt 0.511630 0.929910
vt 0.419668 0.818610
vt 0.511630 0.818244
vt 0.716022 0.863114
vt 0.716022 0.803862
vt 0.620132 0.832483
vt 0.620132 0.785799
vt 0.712264 0.785799
vt 0.712264 0.832483
vt 0.620132 0.709980
vt 0.712264 0.709980
vt 0.712264 0.891735
vt 0.620132 0.891735
vt 0.828174 0.985610
vt 0.933238 0.226837
vt 0.933238 0.408589
vt 0.603762 0.818244
vt 0.419668 0.930262
vt 0.620132 0.447989
vt 0.716022 0.448020
vt 0.716022 0.653425
vt 0.620486 0.709980
vt 0.209913 0.576454
vt 0.311933 0.576454
vt 0.311933 0.781859
vt 0.209913 0.781859
vt 0.389647 0.576454
vt 0.179891 0.130044
vt 0.102177 0.073521
vt 0.102177 0.000000
vt 0.179891 0.041252
vt 0.712264 0.993287
vt 0.613331 0.990528
vt 0.613331 0.894770
vt 0.389647 0.781859
vt 0.821036 0.618388
vt 0.716022 0.618395
vt 0.821036 0.803848
vt 0.209913 0.130042
vt 0.209913 0.315387
vt 0.419668 0.596399
vt 0.419668 0.781859
vt 0.917260 0.794150
vt 0.917260 0.689591
vt 0.947281 0.690863
vt 0.947281 0.795422
vt 0.826574 0.116138
vt 0.920485 0.115109
vt 0.921852 0.206076
vt 0.827941 0.207105
vt 0.925864 0.109762
vt 0.821036 0.110911
vt 0.822562 0.031030
vt 0.927390 0.029881
vt 0.822113 0.001149
vt 0.926941 0.000000
vt 0.311933 0.911988
vt 0.209913 0.911988
vt 0.419668 0.870706
vt 0.389647 0.870706
vt 0.000157 0.073526
vt 0.000157 0.000005
vt 0.209913 0.041251
vt 0.073310 0.475360
vt 0.000001 0.475363
vt 0.000001 0.402249
vt 0.073310 0.402246
vt 0.000000 0.330430
vt 0.073310 0.330440
vt 0.096223 0.331963
vt 0.096223 0.400075
vt 0.894346 0.802332
vt 0.821036 0.802323
vt 0.821036 0.617221
vt 0.894345 0.617217
vt 0.917260 0.598578
vt 0.917260 0.803855
vt 0.821060 0.598583
vt 0.936987 0.417570
vt 0.936987 0.500250
vt 0.927572 0.500250
vt 0.927572 0.596833
vt 0.916520 0.597017
vt 0.822739 0.598578
vt 0.833791 0.598394
vt 0.995237 0.684351
vt 0.922023 0.684351
vt 0.922023 0.603818
vt 0.995237 0.603818
vt 0.936799 0.093341
vt 0.936799 0.184354
vt 0.927390 0.184353
vt 0.613177 0.818244
vt 0.613177 0.909257
vt 0.603762 0.909257
vt 0.524729 0.503167
vt 0.524729 0.403682
vt 0.419668 0.403684
vt 0.419668 0.503170
vt 0.524729 0.818244
vt 0.592444 0.755713
vt 0.620132 0.503165
vt 0.620132 0.403679
vt 0.524729 0.335528
vt 0.524729 0.073566
vt 0.419668 0.130129
vt 0.419668 0.335531
vt 0.620132 0.335526
vt 0.524729 0.000000
vt 0.419668 0.000003
vt 0.620132 0.130124
vt 0.826455 0.116026
vt 0.827825 0.207220
vt 0.921971 0.206188
vt 0.920601 0.114994
vn 0.000000 -0.992600 0.121700
vn -0.121500 -0.987400 0.101300
vn -0.145700 -0.989300 -0.000000
vn 0.000000 -1.000000 -0.000000
vn -0.971200 0.231200 0.058300
vn 0.000000 1.000000 0.000000
vn 0.000000 0.000000 1.000000
vn -0.078000 -0.974500 0.210400
vn -0.194300 -0.967700 0.160600
vn -0.242300 -0.966800 0.080700
vn 0.000000 -0.970400 0.241500
vn -1.000000 -0.000000 -0.000000
vn -0.288300 -0.957500 -0.000000
vn -0.517900 0.000000 0.855400
vn -0.022600 0.992900 0.117100
vn -0.258300 0.674200 0.692000
vn -0.983500 0.180700 -0.000000
vn 0.994900 -0.000000 0.100700
vn 0.000000 0.000000 -1.000000
vn 0.954700 -0.297400 0.000000
vn -0.991900 0.000000 -0.126800
vn 0.987700 0.146500 0.054300
vn 0.987900 0.134800 -0.076100
vn -0.996500 -0.000000 0.083700
vn -0.989800 -0.128000 -0.063300
vn -0.968100 -0.250400 -0.000000
vn 0.988300 -0.000000 -0.152200
vn -0.991500 0.122100 0.045300
vn 0.000000 0.395200 0.918600
vn -0.975300 0.221000 -0.000000
vn -0.991600 0.112400 -0.063400
vn 0.964700 0.263300 0.000000
vn -0.989300 -0.139000 0.045100
vn 0.984500 -0.166600 0.054100
vn 0.985200 -0.153500 -0.075900
vn -0.000000 -0.440800 0.897600
vn -0.991400 0.128700 -0.024800
vn -0.116600 -0.990700 -0.070700
vn 0.000000 -0.996100 -0.088600
vn -0.221300 -0.975200 -0.000000
vn 0.000000 0.511000 -0.859600
vn -0.116900 -0.992800 -0.026300
vn -0.554400 0.000000 0.832200
vn -0.470100 0.000000 -0.882600
vn -0.072000 -0.986400 -0.147600
vn 0.000000 -0.984300 -0.176500
vn -0.099900 -0.993200 -0.059500
vn -0.002600 1.000000 0.002600
vn -0.000000 0.814900 0.579600
vn -0.591800 0.806100 -0.000000
vn -0.002600 1.000000 0.001000
vn -0.596300 0.802800 0.000800
vn 0.000000 0.747100 -0.664700
vn 1.000000 0.000000 0.000000
vn 0.145700 -0.989300 -0.000000
vn 0.121500 -0.987400 0.101300
vn 0.971200 0.231200 0.058300
vn 0.242300 -0.966800 0.080700
vn 0.194300 -0.967700 0.160600
vn 0.078000 -0.974500 0.210400
vn 0.288300 -0.957500 -0.000000
vn 0.517900 0.000000 0.855400
vn 0.022600 0.992900 0.117100
vn 0.258300 0.674200 0.692000
vn 0.983500 0.180700 -0.000000
vn -0.994900 0.000000 0.100700
vn -0.954700 -0.297400 0.000000
vn 0.991900 0.000000 -0.126800
vn -0.987700 0.146500 0.054300
vn -0.987900 0.134800 -0.076100
vn 0.996500 0.000000 0.083700
vn 0.989800 -0.128000 -0.063300
vn 0.968100 -0.250400 -0.000000
vn -0.988300 -0.000000 -0.152200
vn 0.991500 0.122100 0.045300
vn 0.975300 0.221000 -0.000000
vn 0.991600 0.112400 -0.063400
vn -0.964700 0.263300 0.000000
vn 0.989300 -0.139000 0.045100
vn -0.984500 -0.166600 0.054100
vn -0.985200 -0.153500 -0.075900
vn 0.991400 0.128700 -0.024800
vn 0.116600 -0.990700 -0.070700
vn 0.221300 -0.975200 -0.000000
vn 0.116900 -0.992800 -0.026300
vn 0.554400 0.000000 0.832200
vn 0.470100 0.000000 -0.882600
vn 0.072000 -0.986400 -0.147600
vn 0.099900 -0.993200 -0.059500
vn 0.002600 1.000000 0.002600
vn 0.591800 0.806100 -0.000000
vn 0.002600 1.000000 0.001000
vn 0.596300 0.802800 0.000800
usemtl Material.003
s 1
f 1/1/1 2/2/2 3/3/3 4/4/4
f 5/5/5 6/6/5 7/7/5 8/8/5
f 9/9/6 6/10/6 10/11/6 11/12/6
f 10/11/6 6/10/6 12/13/6 13/14/6
f 10/15/7 14/16/7 15/17/7 16/18/7
f 2/2/2 14/19/8 17/20/9 18/21/10
f 2/2/2 1/1/1 19/22/11 14/19/8
f 18/23/12 12/24/12 20/25/12 21/26/12
f 12/24/12 18/23/12 17/27/12 13/28/12
f 3/3/3 2/2/2 18/21/10 21/29/13
f 14/16/14 10/15/14 13/30/14 17/31/14
f 6/10/6 5/32/6 20/33/6 12/13/6
f 20/33/6 5/32/6 22/34/6 23/35/6
f 24/36/12 23/37/12 25/38/12 26/39/12
f 23/35/6 22/34/6 27/40/6 25/41/6
f 4/4/4 3/3/3 28/42/3 29/43/4
f 3/3/3 21/29/13 24/44/13 28/42/3
f 23/37/12 24/36/12 30/45/12 31/46/12
f 32/47/15 33/48/15 8/49/15 7/50/15
f 6/10/16 9/9/16 32/47/16 7/50/16
f 22/51/17 5/5/17 8/8/17 34/52/17
f 35/53/6 31/54/6 36/55/6 37/56/6
f 24/36/12 21/26/12 38/57/12 30/45/12
f 20/25/12 23/37/12 31/46/12 35/58/12
f 21/26/12 20/25/12 35/58/12 38/57/12
f 39/59/18 37/60/18 40/61/18 41/62/18
f 38/63/7 35/64/7 37/65/7 39/66/7
f 30/67/4 38/55/4 39/54/4 42/68/4
f 31/69/19 30/70/19 42/71/19 36/72/19
f 43/73/12 44/74/12 45/75/12 46/76/12
f 42/77/20 39/59/20 47/78/20 48/79/20
f 46/76/21 45/75/21 49/80/21 50/81/21
f 40/61/22 37/60/22 51/82/22 52/83/22
f 41/84/7 40/85/7 53/86/7 54/87/7
f 36/88/23 55/89/23 56/90/23 57/91/23
f 44/74/24 43/73/24 54/92/24 53/93/24
f 46/76/25 50/81/25 58/94/25 59/95/25
f 55/96/19 60/97/19 50/98/19 49/99/19
f 43/73/26 46/76/26 59/95/26 61/100/26
f 36/88/27 42/77/27 60/101/27 55/89/27
f 44/74/28 53/93/28 62/102/28 63/103/28
f 51/104/6 57/105/6 64/106/6 63/107/6
f 51/104/6 63/107/6 62/94/6 52/66/6
f 64/106/6 57/105/6 56/108/6 65/109/6
f 53/86/29 40/85/29 52/110/29 62/111/29
f 55/96/19 49/99/19 65/112/19 56/113/19
f 45/75/30 44/74/30 63/103/30 64/114/30
f 49/80/31 45/75/31 64/114/31 65/115/31
f 37/60/32 36/88/32 57/91/32 51/82/32
f 48/116/4 47/117/4 61/118/4 59/119/4
f 61/118/4 47/117/4 66/120/4 67/121/4
f 48/116/4 59/119/4 58/122/4 68/123/4
f 54/92/33 43/73/33 61/100/33 67/124/33
f 39/59/34 41/62/34 66/125/34 47/78/34
f 60/101/35 42/77/35 48/79/35 68/126/35
f 41/84/36 54/87/36 67/113/36 66/127/36
f 50/98/19 60/97/19 68/111/19 58/128/19
f 27/129/37 69/130/37 70/131/37 71/132/37
f 72/133/4 73/134/3 74/135/38 75/136/39
f 29/43/4 28/42/3 73/134/3 72/133/4
f 28/42/3 24/44/13 26/137/40 73/134/3
f 22/51/17 34/52/17 69/130/17 27/129/17
f 76/138/6 71/139/6 77/140/6 78/141/6
f 79/122/41 71/142/41 70/143/41 80/144/41
f 73/134/3 26/137/40 81/145/42 74/135/38
f 25/41/6 27/40/6 71/139/6 76/138/6
f 82/146/12 83/147/12 84/28/12 85/27/12
f 86/148/12 87/115/12 83/147/12 82/146/12
f 25/41/6 76/138/6 83/149/6 87/150/6
f 81/145/42 26/137/40 86/151/4 82/152/4
f 26/153/43 25/154/43 87/155/43 86/156/43
f 88/157/19 77/158/19 89/159/19 90/160/19
f 77/161/44 88/162/44 91/163/44 78/164/44
f 78/164/19 91/163/19 85/165/19 84/166/19
f 75/136/39 74/135/38 88/167/45 90/168/46
f 81/145/42 82/152/4 85/169/4 91/170/47
f 74/135/38 81/145/42 91/170/47 88/167/45
f 71/139/6 79/171/6 89/172/6 77/140/6
f 83/149/6 76/138/6 78/141/6 84/173/6
f 92/174/6 93/175/6 94/176/6 95/177/6
f 95/177/48 94/176/48 96/178/48 97/179/48
f 8/49/49 33/48/49 93/175/49 92/174/49
f 69/180/50 34/181/50 95/177/50 97/179/50
f 34/181/50 8/49/50 92/174/50 95/177/50
f 98/182/51 99/183/51 100/184/51 101/185/51
f 70/186/52 69/187/52 98/182/52 101/185/52
f 80/188/53 70/186/53 101/185/53 100/184/53
f 16/189/54 15/190/54 102/191/54 103/31/54
f 14/16/7 19/192/7 104/193/7 15/17/7
f 11/194/7 10/15/7 16/18/7 105/195/7
f 106/196/7 107/197/7 103/198/7 102/199/7
f 15/200/6 104/201/6 106/202/6 102/53/6
f 105/203/4 16/204/4 103/205/4 107/127/4
f 1/1/1 4/4/4 108/3/55 109/2/56
f 110/5/57 111/8/57 112/7/57 113/6/57
f 9/9/6 11/12/6 114/11/6 113/10/6
f 114/11/6 115/14/6 116/13/6 113/10/6
f 117/206/12 118/207/12 29/208/12 4/209/12
f 114/15/7 119/18/7 120/17/7 121/16/7
f 109/2/56 122/21/58 123/20/59 121/19/60
f 109/2/56 121/19/60 19/22/11 1/1/1
f 122/23/54 124/26/54 125/25/54 116/24/54
f 116/24/54 115/28/54 123/27/54 122/23/54
f 108/3/55 124/29/61 122/21/58 109/2/56
f 121/16/62 123/31/62 115/30/62 114/15/62
f 113/10/6 116/13/6 125/33/6 110/32/6
f 125/33/6 126/35/6 127/34/6 110/32/6
f 128/36/54 129/39/54 130/38/54 126/37/54
f 126/35/6 130/41/6 131/40/6 127/34/6
f 4/4/4 29/43/4 132/42/55 108/3/55
f 108/3/55 132/42/55 128/44/61 124/29/61
f 9/210/12 32/211/12 33/212/12 117/206/12
f 126/37/54 133/46/54 134/45/54 128/36/54
f 32/47/63 112/50/63 111/49/63 33/48/63
f 117/206/12 33/212/12 135/213/12 118/207/12
f 113/10/64 112/50/64 32/47/64 9/9/64
f 127/51/65 136/52/65 111/8/65 110/5/65
f 137/53/6 138/56/6 139/55/6 133/54/6
f 128/36/54 134/45/54 140/57/54 124/26/54
f 125/25/54 137/58/54 133/46/54 126/37/54
f 124/26/54 140/57/54 137/58/54 125/25/54
f 141/59/66 142/62/66 143/61/66 138/60/66
f 140/63/7 141/66/7 138/65/7 137/64/7
f 134/67/4 144/68/4 141/54/4 140/55/4
f 133/69/19 139/72/19 144/71/19 134/70/19
f 145/73/54 146/76/54 147/75/54 148/74/54
f 144/77/67 149/79/67 150/78/67 141/59/67
f 146/76/68 151/81/68 152/80/68 147/75/68
f 143/61/69 153/83/69 154/82/69 138/60/69
f 142/84/7 155/87/7 156/86/7 143/85/7
f 139/88/70 157/91/70 158/90/70 159/89/70
f 148/74/71 156/93/71 155/92/71 145/73/71
f 146/76/72 160/95/72 161/94/72 151/81/72
f 159/96/19 152/99/19 151/98/19 162/97/19
f 145/73/73 163/100/73 160/95/73 146/76/73
f 139/88/74 159/89/74 162/101/74 144/77/74
f 148/74/75 164/103/75 165/102/75 156/93/75
f 154/104/6 164/107/6 166/106/6 157/105/6
f 154/104/6 153/66/6 165/94/6 164/107/6
f 166/106/6 167/109/6 158/108/6 157/105/6
f 156/86/29 165/111/29 153/110/29 143/85/29
f 159/96/19 158/113/19 167/112/19 152/99/19
f 147/75/76 166/114/76 164/103/76 148/74/76
f 152/80/77 167/115/77 166/114/77 147/75/77
f 138/60/78 154/82/78 157/91/78 139/88/78
f 149/116/4 160/119/4 163/118/4 150/117/4
f 163/118/4 168/121/4 169/120/4 150/117/4
f 149/116/4 170/123/4 161/122/4 160/119/4
f 155/92/79 168/124/79 163/100/79 145/73/79
f 141/59/80 150/78/80 169/125/80 142/62/80
f 162/101/81 170/126/81 149/79/81 144/77/81
f 142/84/36 169/127/36 168/113/36 155/87/36
f 151/98/19 161/128/19 170/111/19 162/97/19
f 131/129/82 171/132/82 172/131/82 173/130/82
f 72/133/4 75/136/39 174/135/83 175/134/55
f 176/214/12 79/215/12 75/216/12 72/217/12
f 118/207/12 176/214/12 72/217/12 29/208/12
f 135/213/12 177/218/12 176/214/12 118/207/12
f 29/43/4 72/133/4 175/134/55 132/42/55
f 132/42/55 175/134/55 129/137/84 128/44/61
f 127/51/65 131/129/65 173/130/65 136/52/65
f 79/215/12 89/219/12 90/220/12 75/216/12
f 178/138/6 179/141/6 180/140/6 171/139/6
f 79/122/41 80/144/41 172/143/41 171/142/41
f 175/134/55 174/135/83 181/145/85 129/137/84
f 177/218/12 80/221/12 79/215/12 176/214/12
f 130/41/6 178/138/6 171/139/6 131/40/6
f 182/146/54 183/27/54 184/28/54 185/147/54
f 186/148/54 182/146/54 185/147/54 187/115/54
f 130/41/6 187/150/6 185/149/6 178/138/6
f 181/145/85 182/152/4 186/151/4 129/137/84
f 129/153/86 186/156/86 187/155/86 130/154/86
f 188/222/19 90/223/19 89/224/19 180/225/19
f 180/161/87 179/164/87 189/163/87 188/162/87
f 179/164/19 184/166/19 183/165/19 189/163/19
f 75/136/39 90/168/46 188/167/88 174/135/83
f 181/145/85 189/170/89 183/169/4 182/152/4
f 174/135/83 188/167/88 189/170/89 181/145/85
f 171/139/6 180/140/6 89/172/6 79/171/6
f 185/149/6 184/173/6 179/141/6 178/138/6
f 190/174/6 191/177/6 94/176/6 93/175/6
f 191/177/90 192/179/90 96/178/90 94/176/90
f 111/49/49 190/174/49 93/175/49 33/48/49
f 173/180/91 192/179/91 191/177/91 136/181/91
f 136/181/91 191/177/91 190/174/91 111/49/91
f 193/182/92 194/185/92 100/184/92 99/183/92
f 172/186/93 194/185/93 193/182/93 173/187/93
f 80/188/53 100/184/53 194/185/53 172/186/53
f 119/189/12 195/31/12 196/191/12 120/190/12
f 121/16/7 120/17/7 104/193/7 19/192/7
f 11/194/7 105/195/7 119/18/7 114/15/7
f 106/196/7 196/199/7 195/198/7 107/197/7
f 120/200/6 196/53/6 106/202/6 104/201/6
f 105/203/4 107/127/4 195/205/4 119/204/4
l 69 177
l 96 177
l 177 99
l 173 177
